<?xml version="1.0" encoding="UTF-8"?>
<svg version="1.1" xmlns="http://www.w3.org/2000/svg" width="666" height="375">
<path d="M0 0 C4.52572168 2.6265349 8.27458087 5.33237583 11.0625 9.8359375 C11.43117187 10.39796875 11.79984375 10.96 12.1796875 11.5390625 C15.38523324 16.97743664 16.18008262 22.60365245 15.0625 28.8359375 C13.51594094 30.79626371 12.53539792 31.70932423 10.10473633 32.36010742 C9.37536865 32.42818604 8.64600098 32.49626465 7.89453125 32.56640625 C6.67733398 32.68725586 6.67733398 32.68725586 5.43554688 32.81054688 C4.59056641 32.88080078 3.74558594 32.95105469 2.875 33.0234375 C2.04935547 33.10529297 1.22371094 33.18714844 0.37304688 33.27148438 C-4.75055424 33.75194815 -9.79277584 33.91307869 -14.9375 33.8359375 C-14.9375 34.4959375 -14.9375 35.1559375 -14.9375 35.8359375 C-10.08398937 37.18352623 -4.62149603 38.1307559 0.0625 35.87109375 C0.660625 35.48824219 1.25875 35.10539062 1.875 34.7109375 C2.926875 34.0921875 3.97875 33.4734375 5.0625 32.8359375 C8.72400899 33.93863133 10.08003679 35.94638206 11.875 39.2109375 C12.31457031 39.98179687 12.75414062 40.75265625 13.20703125 41.546875 C14.19535378 44.19142753 14.13088521 45.25537629 13.0625 47.8359375 C7.47714611 53.5958337 0.3854967 55.00835575 -7.375 55.2734375 C-16.70413543 55.01248266 -23.53480114 52.01814086 -30.3125 45.63671875 C-36.22326553 39.08656752 -36.23993074 31.69030971 -36.14453125 23.3125 C-35.64604678 14.94172304 -32.0493374 9.4843774 -25.9375 3.8359375 C-18.35246176 -1.55752207 -8.84801097 -3.50625967 0 0 Z M-15.1875 16.6484375 C-17.24984752 18.75947743 -17.24984752 18.75947743 -16.9375 21.8359375 C-10.62481397 22.21145915 -10.62481397 22.21145915 -4.9375 19.8359375 C-6.66872465 17.25474679 -6.66872465 17.25474679 -8.9375 14.8359375 C-12.89986924 14.41771781 -12.89986924 14.41771781 -15.1875 16.6484375 Z " fill="#72AB49" transform="translate(191.9375,146.1640625)"/>
<path d="M0 0 C6.54142439 4.86803675 8.80080926 11.9047928 9.97265625 19.75 C10.48669521 27.53401854 7.94148678 34.72222249 3.03515625 40.75 C-2.7501624 46.40383414 -9.36987248 49.18467641 -17.3984375 49.8828125 C-25.01068251 49.48887592 -32.35053999 46.91169265 -37.96484375 41.75 C-43.60400912 34.68282893 -45.94384279 26.72666808 -44.96484375 17.75 C-44.24343121 14.61159218 -43.21106549 11.71589891 -41.96484375 8.75 C-41.72121094 8.11964844 -41.47757813 7.48929688 -41.2265625 6.83984375 C-38.55658831 1.08231646 -33.53674594 -1.58905953 -27.96484375 -4.25 C-18.11077501 -7.54801489 -8.46169251 -5.3831841 0 0 Z M-23.96484375 15.875 C-25.48641024 20.24950365 -25.5435492 23.21813263 -23.90234375 27.5625 C-22.02889331 30.03473778 -22.02889331 30.03473778 -18.58984375 30.9375 C-14.77191493 31.11413162 -14.77191493 31.11413162 -12.02734375 28.1875 C-10.39462264 25.85195193 -9.93234095 24.57304034 -9.40234375 21.6875 C-10.13070365 17.88384274 -11.00143371 16.26889853 -13.96484375 13.75 C-17.93836217 12.75861915 -21.02278316 12.74906062 -23.96484375 15.875 Z " fill="#74AD4C" transform="translate(294.96484375,151.25)"/>
<path d="M0 0 C5.32750414 2.02952539 7.35458284 6.24464286 10 11 C10.41636719 11.73605469 10.83273437 12.47210938 11.26171875 13.23046875 C16.70671929 23.04395109 21.80976807 33.050439 27 43 C27.01981934 41.76846191 27.03963867 40.53692383 27.06005859 39.26806641 C27.13599182 34.70942339 27.22472763 30.15110473 27.31738281 25.59277344 C27.35572349 23.61790356 27.3905673 21.64296264 27.421875 19.66796875 C27.46741547 16.83307455 27.52542715 13.9986717 27.5859375 11.1640625 C27.60326431 9.83430893 27.60326431 9.83430893 27.62094116 8.47769165 C27.64081085 7.65699188 27.66068054 6.83629211 27.68115234 5.99072266 C27.69447601 5.26680328 27.70779968 4.54288391 27.7215271 3.79702759 C28 2 28 2 30 0 C36.32258065 -0.33870968 36.32258065 -0.33870968 39 1 C39.02314476 8.91886714 39.040926 16.8377202 39.05181217 24.75661278 C39.05703632 28.43345711 39.0641255 32.11027834 39.07543945 35.78710938 C39.08628493 39.3337896 39.09228037 42.88044757 39.09487724 46.4271431 C39.09672849 47.78196183 39.10034338 49.13677931 39.10573006 50.49158859 C39.11296238 52.38549365 39.11340824 54.27942098 39.11352539 56.17333984 C39.115746 57.25255707 39.11796661 58.33177429 39.12025452 59.44369507 C39 62 39 62 38 64 C36.25138208 64.10853491 34.50080759 64.18583428 32.75 64.25 C31.77546875 64.29640625 30.8009375 64.3428125 29.796875 64.390625 C26.19105805 63.88701928 25.24743842 62.81405955 23 60 C18.107661 52.78962419 14.48212238 44.92531744 10.85620117 37.03222656 C8.5685882 32.0891376 6.0476302 27.52526909 3 23 C2.67 22.34 2.34 21.68 2 21 C1.97494385 22.26706787 1.9498877 23.53413574 1.92407227 24.83959961 C1.83018004 29.52297779 1.72991565 34.2062013 1.62768555 38.8894043 C1.58426759 40.91964104 1.54259774 42.94991592 1.50268555 44.98022461 C1.44514854 47.89188151 1.38140722 50.80334514 1.31640625 53.71484375 C1.29133751 55.08514992 1.29133751 55.08514992 1.26576233 56.48313904 C1.11387171 62.88612829 1.11387171 62.88612829 0 64 C-3.33327842 64.1424478 -6.66453893 64.04222103 -10 64 C-11.12108561 54.88575277 -11.15354018 45.81497469 -11.13037109 36.64892578 C-11.1250255 34.13698246 -11.13033704 31.62521906 -11.13671875 29.11328125 C-11.15119222 7.3703837 -11.15119222 7.3703837 -10 2 C-6.27420911 -0.48386059 -4.41288598 -0.3804212 0 0 Z " fill="#0F0F0F" transform="translate(363,181)"/>
<path d="M0 0 C2.23353999 1.59047683 2.96623017 2.64225195 3.77734375 5.265625 C3.45703125 7.9921875 3.45703125 7.9921875 2.65234375 10.890625 C2.27722656 12.33308594 2.27722656 12.33308594 1.89453125 13.8046875 C0.77734375 16.265625 0.77734375 16.265625 -0.94921875 17.625 C-3.95123197 18.47092812 -6.37938202 18.22685046 -9.47265625 17.890625 C-10.5503125 17.77976563 -11.62796875 17.66890625 -12.73828125 17.5546875 C-13.558125 17.45929688 -14.37796875 17.36390625 -15.22265625 17.265625 C-15.22265625 17.925625 -15.22265625 18.585625 -15.22265625 19.265625 C-15.88265625 19.265625 -16.54265625 19.265625 -17.22265625 19.265625 C-17.22265625 23.225625 -17.22265625 27.185625 -17.22265625 31.265625 C-12.61097029 32.74795263 -9.55644837 33.6282425 -4.84765625 32.265625 C-3.05328125 31.770625 -3.05328125 31.770625 -1.22265625 31.265625 C2.54306433 35.03134558 2.90234375 40.63037586 2.90234375 45.765625 C2.86109375 46.920625 2.81984375 48.075625 2.77734375 49.265625 C1.52842761 49.74760963 0.27815567 50.22608177 -0.97265625 50.703125 C-1.66875 50.96996094 -2.36484375 51.23679688 -3.08203125 51.51171875 C-11.03589252 54.31298741 -17.28822958 53.74117711 -24.9453125 50.4140625 C-27.72785675 49.01085837 -30.0163752 47.47190605 -32.22265625 45.265625 C-32.22265625 44.605625 -32.22265625 43.945625 -32.22265625 43.265625 C-33.21265625 42.935625 -34.20265625 42.605625 -35.22265625 42.265625 C-39.93827636 34.1039748 -40.5001278 25.05354585 -38.76171875 15.81640625 C-36.23889971 8.26278926 -31.40584754 3.62836487 -24.53515625 -0.171875 C-15.8438801 -4.18406065 -8.64067833 -3.9375243 0 0 Z " fill="#72AC48" transform="translate(247.22265625,147.734375)"/>
<path d="M0 0 C2.19719683 0.00316775 4.39305677 -0.02033325 6.59008789 -0.0456543 C7.98266431 -0.04792656 9.37524436 -0.04863113 10.76782227 -0.04760742 C12.03698486 -0.05058838 13.30614746 -0.05356934 14.61376953 -0.05664062 C16.11121704 0.12765503 16.11121704 0.12765503 17.63891602 0.31567383 C19.63891602 3.31567383 19.63891602 3.31567383 18.63891602 10.31567383 C10.38891602 10.31567383 2.13891602 10.31567383 -6.36108398 10.31567383 C-6.03108398 15.59567383 -5.70108398 20.87567383 -5.36108398 26.31567383 C-4.10811523 26.2924707 -2.85514648 26.26926758 -1.56420898 26.24536133 C0.08682672 26.22659956 1.73786887 26.20839979 3.38891602 26.19067383 C4.21391602 26.17391602 5.03891602 26.1571582 5.88891602 26.13989258 C6.68813477 26.13344727 7.48735352 26.12700195 8.31079102 26.12036133 C9.04394531 26.1098877 9.77709961 26.09941406 10.5324707 26.08862305 C12.93787678 26.34789839 14.55143096 27.12341458 16.63891602 28.31567383 C16.76391602 31.19067383 16.76391602 31.19067383 16.63891602 34.31567383 C14.63891602 36.31567383 14.63891602 36.31567383 12.48413086 36.54272461 C11.61481934 36.53225098 10.74550781 36.52177734 9.84985352 36.51098633 C8.90883789 36.50454102 7.96782227 36.4980957 6.99829102 36.49145508 C5.52102539 36.46631836 5.52102539 36.46631836 4.01391602 36.44067383 C3.02133789 36.43165039 2.02875977 36.42262695 1.00610352 36.41333008 C-1.44972786 36.38971631 -3.90543572 36.35384453 -6.36108398 36.31567383 C-6.36108398 42.58567383 -6.36108398 48.85567383 -6.36108398 55.31567383 C-3.79713867 55.29827148 -3.79713867 55.29827148 -1.18139648 55.28051758 C1.05037326 55.27114039 3.28214418 55.26204012 5.51391602 55.25317383 C7.20581055 55.24060547 7.20581055 55.24060547 8.93188477 55.2277832 C10.00825195 55.22456055 11.08461914 55.22133789 12.19360352 55.21801758 C13.18859863 55.21278076 14.18359375 55.20754395 15.20874023 55.20214844 C17.63891602 55.31567383 17.63891602 55.31567383 19.63891602 56.31567383 C19.68133325 58.64862158 19.67984539 60.9826995 19.63891602 63.31567383 C17.90598622 65.04860362 15.67677266 64.44387429 13.36743164 64.45462036 C12.63202148 64.45259613 11.89661133 64.4505719 11.13891602 64.44848633 C10.38803711 64.44944305 9.6371582 64.45039978 8.86352539 64.4513855 C7.27302975 64.45206721 5.68253134 64.45021355 4.09204102 64.44604492 C1.64926947 64.4406965 -0.7933182 64.44599017 -3.23608398 64.45239258 C-4.77775106 64.4517318 -6.31941802 64.45045063 -7.86108398 64.44848633 C-8.59649414 64.45051056 -9.3319043 64.45253479 -10.08959961 64.45462036 C-15.24613238 64.43062543 -15.24613238 64.43062543 -16.36108398 63.31567383 C-16.47073086 61.42428904 -16.51018803 59.52879949 -16.5222168 57.63427734 C-16.53182434 56.41954239 -16.54143188 55.20480743 -16.55133057 53.95326233 C-16.55617768 52.61703681 -16.56045672 51.28080912 -16.56420898 49.94458008 C-16.56995777 48.58316545 -16.57571554 47.22175086 -16.58148193 45.8603363 C-16.59199975 43.00291566 -16.5978374 40.14552323 -16.60131836 37.28808594 C-16.60680718 33.62134882 -16.63083964 29.9549823 -16.65929031 26.28836155 C-16.67788631 23.47542725 -16.68312063 20.66258279 -16.68465424 17.84959221 C-16.68768783 16.4975475 -16.69574008 15.14550463 -16.70883942 13.79351997 C-16.72583583 11.90457584 -16.72218418 10.01547971 -16.7175293 8.12646484 C-16.72117493 7.05026382 -16.72482056 5.97406281 -16.72857666 4.86524963 C-16.54666779 3.60320961 -16.54666779 3.60320961 -16.36108398 2.31567383 C-11.47549707 -0.94138411 -5.71836584 -0.01732644 0 0 Z " fill="#111111" transform="translate(322.361083984375,180.684326171875)"/>
<path d="M0 0 C1.31134666 -0.00934319 1.31134666 -0.00934319 2.64918518 -0.01887512 C3.5898735 -0.00966537 4.53056183 -0.00045563 5.49975586 0.0090332 C6.95121254 0.00828545 6.95121254 0.00828545 8.43199158 0.00752258 C10.47714289 0.00986301 12.52229707 0.01958967 14.56738281 0.03613281 C17.70590827 0.05974905 20.84358589 0.05669057 23.98217773 0.05004883 C25.96720886 0.05562467 27.9522364 0.06273396 29.93725586 0.0715332 C30.87996841 0.0706218 31.82268097 0.06971039 32.79396057 0.06877136 C33.66503952 0.07830338 34.53611847 0.08783539 35.43359375 0.09765625 C36.5858419 0.10456734 36.5858419 0.10456734 37.7613678 0.11161804 C39.65209961 0.37231445 39.65209961 0.37231445 41.65209961 2.37231445 C41.83959961 5.93481445 41.83959961 5.93481445 41.65209961 9.37231445 C41.32209961 9.70231445 40.99209961 10.03231445 40.65209961 10.37231445 C34.71209961 10.37231445 28.77209961 10.37231445 22.65209961 10.37231445 C22.65209961 28.19231445 22.65209961 46.01231445 22.65209961 64.37231445 C19.35209961 64.37231445 16.05209961 64.37231445 12.65209961 64.37231445 C11.65209961 63.37231445 11.65209961 63.37231445 11.53184509 61.23997498 C11.5340657 60.30065628 11.53628632 59.36133759 11.53857422 58.39355469 C11.53864975 57.33253036 11.53872528 56.27150604 11.5388031 55.17832947 C11.54396439 54.02418045 11.54912567 52.87003143 11.55444336 51.6809082 C11.55585831 50.50593277 11.55727325 49.33095734 11.55873108 48.12037659 C11.56434969 44.35016381 11.57690535 40.58000942 11.58959961 36.80981445 C11.59461221 34.26098718 11.59917553 31.71215899 11.60327148 29.16333008 C11.61432517 22.89963555 11.63160227 16.63598491 11.65209961 10.37231445 C5.71209961 10.37231445 -0.22790039 10.37231445 -6.34790039 10.37231445 C-7.34790039 3.37231445 -7.34790039 3.37231445 -6.18214417 1.45808411 C-3.94528739 0.13399009 -2.59438376 -0.00212361 0 0 Z " fill="#101010" transform="translate(415.347900390625,180.627685546875)"/>
<path d="M0 0 C3.13874758 -0.48704704 4.98989415 -0.76888573 8 0 C10.70819276 2.58683507 12.28637165 5.69711954 14 9 C14.56203125 10.07894531 15.1240625 11.15789062 15.703125 12.26953125 C17.17241 15.16347343 18.60236792 18.07092001 20 21 C20.02505615 20.39937744 20.0501123 19.79875488 20.07592773 19.17993164 C20.1915528 16.47388563 20.31442936 13.76821717 20.4375 11.0625 C20.47681641 10.11697266 20.51613281 9.17144531 20.55664062 8.19726562 C20.59853516 7.29814453 20.64042969 6.39902344 20.68359375 5.47265625 C20.72025146 4.64000244 20.75690918 3.80734863 20.79467773 2.94946289 C21 1 21 1 22 0 C25 -0.125 25 -0.125 28 0 C29.76072584 1.76072584 29.12834784 4.0789629 29.13894653 6.4239502 C29.1369223 7.18123413 29.13489807 7.93851807 29.1328125 8.71875 C29.13424759 9.87836243 29.13424759 9.87836243 29.13571167 11.06140137 C29.13639341 12.69897544 29.13453957 14.33655219 29.13037109 15.97412109 C29.12502271 18.48931921 29.13031626 21.00433873 29.13671875 23.51953125 C29.13605797 25.10677123 29.1347768 26.6940111 29.1328125 28.28125 C29.13483673 29.03853394 29.13686096 29.79581787 29.13894653 30.5760498 C29.11495132 35.88504868 29.11495132 35.88504868 28 37 C22.26788219 37.56381487 22.26788219 37.56381487 20 37 C16.20356001 33.18870115 14.06132384 28.47573069 11.75 23.6875 C10.5125 21.150625 9.275 18.61375 8 16 C7.67 22.93 7.34 29.86 7 37 C4.36 37 1.72 37 -1 37 C-1.0246826 32.05208706 -1.04285166 27.1042098 -1.05493164 22.15625 C-1.05996653 20.47232438 -1.06679481 18.78840314 -1.07543945 17.10449219 C-1.08754196 14.68683797 -1.09323668 12.26924144 -1.09765625 9.8515625 C-1.10281754 9.0963028 -1.10797882 8.34104309 -1.11329651 7.56289673 C-1.11387171 2.22774341 -1.11387171 2.22774341 0 0 Z " fill="#1E1D1E" transform="translate(160,208)"/>
<path d="M0 0 C2.54232342 -0.08152344 5.08199202 -0.14073716 7.625 -0.1875 C8.33785156 -0.21263672 9.05070312 -0.23777344 9.78515625 -0.26367188 C14.59868692 -0.32991312 17.82231506 0.34556326 22 3 C23.96132202 6.92264405 23.48640203 11.72345226 23 16 C21 18.6875 21 18.6875 19 20 C19.598125 20.825 20.19625 21.65 20.8125 22.5 C23.74481227 26.89325077 26 31.67099866 26 37 C23.36 37 20.72 37 18 37 C17.66226562 36.15695313 17.32453125 35.31390625 16.9765625 34.4453125 C16.53054688 33.34960938 16.08453125 32.25390625 15.625 31.125 C15.18414062 30.03445312 14.74328125 28.94390625 14.2890625 27.8203125 C13.16948662 24.93670638 13.16948662 24.93670638 11 23 C9.68 22.67 8.36 22.34 7 22 C7 26.95 7 31.9 7 37 C4.69 37 2.38 37 0 37 C-1.7282114 35.2717886 -1.12817712 33.05749626 -1.13894653 30.75416565 C-1.1369223 30.02189255 -1.13489807 29.28961945 -1.1328125 28.53515625 C-1.13376923 27.78664902 -1.13472595 27.03814178 -1.13571167 26.26695251 C-1.13639346 24.68065304 -1.13453922 23.09435079 -1.13037109 21.50805664 C-1.12503024 19.07627091 -1.1303122 16.64467051 -1.13671875 14.21289062 C-1.13605782 12.67447876 -1.13477635 11.13606701 -1.1328125 9.59765625 C-1.13483673 8.86740738 -1.13686096 8.13715851 -1.13894653 7.38478088 C-1.11495668 2.22991336 -1.11495668 2.22991336 0 0 Z M7 6 C7 8.97 7 11.94 7 15 C9.64 15 12.28 15 15 15 C15.33 13.02 15.66 11.04 16 9 C12.55930376 6.70620251 11.27709699 6 7 6 Z " fill="#1A1A1A" transform="translate(258,208)"/>
<path d="M0 0 C3 0.125 3 0.125 4 1.125 C4.08767112 3.19762076 4.10695873 5.27320294 4.09765625 7.34765625 C4.09443359 8.60771484 4.09121094 9.86777344 4.08789062 11.16601562 C4.07953403 12.50651109 4.07106907 13.84700588 4.0625 15.1875 C4.0574866 16.53189942 4.05292342 17.8763006 4.04882812 19.22070312 C4.03699488 22.52217941 4.02050971 25.82356803 4 29.125 C6.88211302 30.08570434 8.69850044 30.23081883 11.6875 30.1875 C12.49574219 30.17847656 13.30398437 30.16945312 14.13671875 30.16015625 C14.75160156 30.14855469 15.36648437 30.13695312 16 30.125 C16.72276881 26.15877403 17.16483404 22.31655256 17.31640625 18.2890625 C17.35830078 17.22558594 17.40019531 16.16210938 17.44335938 15.06640625 C17.48267578 13.97199219 17.52199219 12.87757813 17.5625 11.75 C17.60568359 10.63238281 17.64886719 9.51476562 17.69335938 8.36328125 C17.79897411 5.61729801 17.9010797 2.87123119 18 0.125 C20.31 0.125 22.62 0.125 25 0.125 C25.97339117 6.92376297 26.06197293 13.59363745 25.75 20.4375 C25.71048218 21.58387939 25.71048218 21.58387939 25.67016602 22.75341797 C25.40812854 27.50330118 24.68459159 31.05501138 22 35.125 C17.04899462 38.98947253 8.94260709 37.7644762 3 37.125 C-0.06246227 35.8087705 -0.90422447 34.8371801 -3 32.125 C-4.19066521 28.73034739 -4.12916118 25.43661821 -4.1328125 21.86328125 C-4.13410156 20.66251953 -4.13539063 19.46175781 -4.13671875 18.22460938 C-4.13285156 16.97486328 -4.12898437 15.72511719 -4.125 14.4375 C-4.12886719 13.17615234 -4.13273438 11.91480469 -4.13671875 10.61523438 C-4.13542969 9.41833984 -4.13414062 8.22144531 -4.1328125 6.98828125 C-4.13168457 5.88782471 -4.13055664 4.78736816 -4.12939453 3.65356445 C-3.94133953 -0.02131405 -3.73395344 0.15558139 0 0 Z " fill="#1A1A1A" transform="translate(199,207.875)"/>
<path d="M0 0 C-1.50223336 4.61400246 -3.12906825 9.1615077 -4.875 13.6875 C-5.11863281 14.35072266 -5.36226563 15.01394531 -5.61328125 15.69726562 C-7.11235136 19.55368172 -8.35446905 21.94759478 -12 24 C-16.12146282 25.70234334 -19.54689101 26.473735 -24 26 C-26.8125 24.6875 -26.8125 24.6875 -29 23 C-30.63509159 18.09472524 -30.39374496 14.22268173 -28.8125 9.3125 C-25.95613509 4.09224688 -22.83584125 2.11997133 -17.3125 0.25 C-11.98131286 -1.22067231 -5.14470252 -2.57235126 0 0 Z " fill="#9CD567" transform="translate(328,128)"/>
<path d="M0 0 C1.16781006 0.00523682 2.33562012 0.01047363 3.53881836 0.01586914 C4.79887695 0.0190918 6.05893555 0.02231445 7.35717773 0.02563477 C8.6976732 0.03399136 10.03816799 0.04245632 11.37866211 0.05102539 C12.72306153 0.05603879 14.06746271 0.06060197 15.41186523 0.06469727 C18.71334151 0.07653051 22.01473014 0.09301568 25.31616211 0.11352539 C25.31616211 2.09352539 25.31616211 4.07352539 25.31616211 6.11352539 C22.10164942 7.72078174 18.88003675 7.17100724 15.31616211 7.11352539 C15.32401733 8.42341431 15.32401733 8.42341431 15.33203125 9.75976562 C15.34903962 12.98941812 15.3615958 16.21904784 15.37109375 19.44873047 C15.3761329 20.84847767 15.38296427 22.24821959 15.39160156 23.64794922 C15.40368531 25.65598316 15.40886018 27.66405497 15.41381836 29.67211914 C15.42167358 31.48667603 15.42167358 31.48667603 15.4296875 33.33789062 C15.31616211 36.11352539 15.31616211 36.11352539 14.31616211 37.11352539 C10.81616211 37.23852539 10.81616211 37.23852539 7.31616211 37.11352539 C6.31616211 36.11352539 6.31616211 36.11352539 6.20263672 33.33789062 C6.20787354 32.12818604 6.21311035 30.91848145 6.21850586 29.67211914 C6.22172852 28.36694336 6.22495117 27.06176758 6.22827148 25.71704102 C6.2366281 24.32836849 6.24509306 22.93969662 6.25366211 21.55102539 C6.25867545 20.15844883 6.26323864 18.76587058 6.26733398 17.37329102 C6.27916777 13.95332669 6.29565331 10.53344695 6.31616211 7.11352539 C5.22303711 7.13415039 4.12991211 7.15477539 3.00366211 7.17602539 C-0.68383789 7.11352539 -0.68383789 7.11352539 -3.68383789 6.11352539 C-3.72655889 4.44740634 -3.72447621 2.77969654 -3.68383789 1.11352539 C-2.68383789 0.11352539 -2.68383789 0.11352539 0 0 Z " fill="#242424" transform="translate(229.683837890625,207.886474609375)"/>
<path d="M0 0 C7.40640809 -0.4856661 7.40640809 -0.4856661 10.0625 1.6875 C11.25853552 4.63772095 11.06958635 6.02043802 10 9 C8.4375 10.8125 8.4375 10.8125 7 12 C6.01 11.34 5.02 10.68 4 10 C4 10.66 4 11.32 4 12 C4.66 12.33 5.32 12.66 6 13 C5.814375 13.969375 5.62875 14.93875 5.4375 15.9375 C5.293125 16.948125 5.14875 17.95875 5 19 C5.33 19.33 5.66 19.66 6 20 C6.07325168 22.86267567 6.09238205 25.700719 6.0625 28.5625 C6.05798828 29.36880859 6.05347656 30.17511719 6.04882812 31.00585938 C6.03700518 33.00393756 6.01906914 35.00197783 6 37 C3.69 37 1.38 37 -1 37 C-1.0246826 32.05208706 -1.04285166 27.1042098 -1.05493164 22.15625 C-1.05996653 20.47232438 -1.06679481 18.78840314 -1.07543945 17.10449219 C-1.08754196 14.68683797 -1.09323668 12.26924144 -1.09765625 9.8515625 C-1.10281754 9.0963028 -1.10797882 8.34104309 -1.11329651 7.56289673 C-1.11387171 2.22774341 -1.11387171 2.22774341 0 0 Z " fill="#090909" transform="translate(160,208)"/>
<path d="M0 0 C2.31 0 4.62 0 7 0 C7 12.21 7 24.42 7 37 C4.69 37 2.38 37 0 37 C0 24.79 0 12.58 0 0 Z " fill="#090909" transform="translate(288,208)"/>
<path d="M0 0 C0.46295461 8.83043047 0.46295461 8.83043047 -1.1875 13 C-3.30294078 15.33427949 -5.04112572 16.01370857 -8 17 C-8.66 17.66 -9.32 18.32 -10 19 C-12.68839385 19.26991906 -15.29141936 19.08737357 -18 19 C-18.33 18.01 -18.66 17.02 -19 16 C-18.34 16 -17.68 16 -17 16 C-16.979375 14.80375 -16.95875 13.6075 -16.9375 12.375 C-16.48671003 8.7429208 -15.54476405 7.05635391 -12.8125 4.625 C-8.80413964 1.59609525 -5.07442004 0 0 0 Z " fill="#8ABF5B" transform="translate(323,132)"/>
<path d="M0 0 C0.66 0.33 1.32 0.66 2 1 C-1.17320782 4.53586014 -3.16743695 6.58578031 -8 7 C-8.12375 7.804375 -8.2475 8.60875 -8.375 9.4375 C-8.58125 10.283125 -8.7875 11.12875 -9 12 C-9.99 12.495 -9.99 12.495 -11 13 C-14.80466708 16.80466708 -14.16201822 21.32210158 -14.1875 26.5 C-14.20167969 27.8096875 -14.21585938 29.119375 -14.23046875 30.46875 C-14.02103371 33.67772076 -13.88812381 35.44068268 -12 38 C-11.01 38.33 -10.02 38.66 -9 39 C-9 39.66 -9 40.32 -9 41 C-8.34 41 -7.68 41 -7 41 C-7 42.98 -7 44.96 -7 47 C-6.11634766 47.18369141 -6.11634766 47.18369141 -5.21484375 47.37109375 C-2.99539353 48.00130801 -1.51002352 48.85234619 0.4375 50.0625 C8.14685206 54.03267194 17.06509997 52.5324149 25 50 C27.18359375 50.44140625 27.18359375 50.44140625 29 51 C19.36822553 55.32368233 9.87574042 57.04713733 -0.3125 53.4375 C-7.40765951 50.16725547 -13.19044966 45.43704502 -16 38 C-18.29358916 30.69630119 -18.31448609 20.82535455 -15.10546875 13.8046875 C-11.27920136 7.55827218 -6.68515829 3.01487531 0 0 Z " fill="#82AC60" transform="translate(173,146)"/>
<path d="M0 0 C-1.15585285 3.91211733 -2.35534962 6.8745041 -5 10 C-5.33 7.69 -5.66 5.38 -6 3 C-12.80986931 2.46237874 -20.11850131 4.51857477 -26 8 C-26.80528889 10.05000871 -26.80528889 10.05000871 -27 12 C-27.66 12 -28.32 12 -29 12 C-27.75142868 7.0057147 -26.4327256 4.67810505 -22 2 C-15.60001964 -0.64865972 -6.57272809 -3.28636404 0 0 Z " fill="#B0D485" transform="translate(328,128)"/>
<path d="M0 0 C0.33 0.99 0.66 1.98 1 3 C-0.62339805 4.70884005 -2.29319053 6.37446717 -4 8 C-4.66 8 -5.32 8 -6 8 C-6.12375 8.70125 -6.2475 9.4025 -6.375 10.125 C-7 13 -7 13 -8.0625 15.75 C-9.26115231 19.90532802 -9.17167018 23.70824562 -9 28 C-8.34 28.33 -7.68 28.66 -7 29 C-7 30.98 -7 32.96 -7 35 C-6.34 35 -5.68 35 -5 35 C-5 36.65 -5 38.3 -5 40 C-8.7949302 36.83755817 -10.34226131 33.81529682 -11 29 C-11.68936103 18.82890129 -11.47124638 11.0353898 -4.9375 3 C-2.30580357 0 -2.30580357 0 0 0 Z " fill="#8FB371" transform="translate(219,151)"/>
<path d="M0 0 C0.66 0.33 1.32 0.66 2 1 C-1.17320782 4.53586014 -3.16743695 6.58578031 -8 7 C-8.12375 7.804375 -8.2475 8.60875 -8.375 9.4375 C-8.58125 10.283125 -8.7875 11.12875 -9 12 C-9.99 12.495 -9.99 12.495 -11 13 C-14.09762996 16.09762996 -14.11565718 19.30246601 -14.31640625 23.546875 C-14.35830078 24.39121094 -14.40019531 25.23554688 -14.44335938 26.10546875 C-14.48267578 26.97816406 -14.52199219 27.85085937 -14.5625 28.75 C-14.60568359 29.63816406 -14.64886719 30.52632812 -14.69335938 31.44140625 C-14.79913615 33.62745963 -14.90122546 35.81362089 -15 38 C-18.34973571 31.84895508 -17.77692724 24.36491849 -16.5703125 17.5859375 C-14.36967683 10.76668376 -9.25076439 5.12102805 -3.1875 1.4375 C-2.135625 0.963125 -1.08375 0.48875 0 0 Z " fill="#98B980" transform="translate(173,146)"/>
<path d="M0 0 C3.14700332 2.45859634 3.48727155 5.78934446 4 9.5625 C4.1369848 12.25653438 4.09645325 14.86180899 4 17.5625 C2.75108386 18.04448463 1.50081192 18.52295677 0.25 19 C-0.44609375 19.26683594 -1.1421875 19.53367188 -1.859375 19.80859375 C-5.41906163 21.06227901 -8.4681443 21.68803093 -12.25 21.625 C-14.10625 21.5940625 -14.10625 21.5940625 -16 21.5625 C-16 21.2325 -16 20.9025 -16 20.5625 C-15.24074219 20.38074219 -14.48148438 20.19898438 -13.69921875 20.01171875 C-12.70535156 19.76035156 -11.71148437 19.50898438 -10.6875 19.25 C-9.20830078 18.88455078 -9.20830078 18.88455078 -7.69921875 18.51171875 C-4.93676453 17.54026234 -3.96568645 16.62041808 -2 14.5625 C-1.01 14.5625 -0.02 14.5625 1 14.5625 C0.505 8.1275 0.505 8.1275 0 1.5625 C-1.32 1.2325 -2.64 0.9025 -4 0.5625 C-2 -0.4375 -2 -0.4375 0 0 Z " fill="#87AF6B" transform="translate(246,179.4375)"/>
<path d="M0 0 C1.32 0 2.64 0 4 0 C3.5 1.8125 3.5 1.8125 2 4 C-2.41207164 6.41854386 -6.97424455 7.67010073 -12 7 C-14.875 5.6875 -14.875 5.6875 -17 4 C-17 3.01 -17 2.02 -17 1 C-14.83125748 1.50603992 -13.00032373 1.99983813 -11 3 C-5.71039764 3.63284013 -5.71039764 3.63284013 -1.25 1.5 C-0.8375 1.005 -0.425 0.51 0 0 Z " fill="#A8C685" transform="translate(316,147)"/>
<path d="M0 0 C0.99 0.66 1.98 1.32 3 2 C2.60418903 4.12898327 2.18264558 6.2531956 1.75 8.375 C1.40195313 10.15003906 1.40195313 10.15003906 1.046875 11.9609375 C0 15 0 15 -1.8125 16.4375 C-4.34461331 17.08861485 -6.16857434 17.00462142 -8.75 16.625 C-9.54921875 16.51414063 -10.3484375 16.40328125 -11.171875 16.2890625 C-12.07679688 16.14597656 -12.07679688 16.14597656 -13 16 C-13 15.67 -13 15.34 -13 15 C-7.555 14.505 -7.555 14.505 -2 14 C-2 12.35 -2 10.7 -2 9 C-1.34 9 -0.68 9 0 9 C0 6.03 0 3.06 0 0 Z " fill="#8FAB76" transform="translate(248,149)"/>
<path d="M0 0 C0.33 0 0.66 0 1 0 C1.33 5.94 1.66 11.88 2 18 C2.66 18 3.32 18 4 18 C4.33 20.31 4.66 22.62 5 25 C0.74155015 21.20675896 -0.71432686 16.14240451 -1.22265625 10.55078125 C-1.26559619 6.83954395 -0.99897418 3.58502832 0 0 Z " fill="#A4BF7B" transform="translate(251,165)"/>
<path d="M0 0 C3.14700332 2.45859634 3.48727155 5.78934446 4 9.5625 C4.1369848 12.25653438 4.09645325 14.86180899 4 17.5625 C3.34 17.8925 2.68 18.2225 2 18.5625 C1.66507287 16.10437409 1.3319903 13.64602273 1 11.1875 C0.90460938 10.48882812 0.80921875 9.79015625 0.7109375 9.0703125 C0 3.7890625 0 3.7890625 0 1.5625 C-1.32 1.2325 -2.64 0.9025 -4 0.5625 C-2 -0.4375 -2 -0.4375 0 0 Z " fill="#92B075" transform="translate(246,179.4375)"/>
<path d="M0 0 C3.10147731 3.10147731 3.49212474 6.72484746 4 11 C3.88304386 14.37301516 3.51507343 17.66594362 3 21 C2.67 21 2.34 21 2 21 C1.96132813 19.83984375 1.96132813 19.83984375 1.921875 18.65625 C1.54480298 11.73183653 0.55590483 6.96474358 -3 1 C-2.01 0.67 -1.02 0.34 0 0 Z " fill="#9EBB7F" transform="translate(301,160)"/>
<path d="M0 0 C13.6332574 -0.738041 13.6332574 -0.738041 20 4 C19.34 4.66 18.68 5.32 18 6 C17.071875 5.54625 16.14375 5.0925 15.1875 4.625 C10.32360231 2.51330779 5.21136509 1.80102357 0 1 C0 0.67 0 0.34 0 0 Z " fill="#9FBF86" transform="translate(176,145)"/>
<path d="M0 0 C4.95 0.99 4.95 0.99 10 2 C10.33 2.99 10.66 3.98 11 5 C11.66 5 12.32 5 13 5 C12.67 6.32 12.34 7.64 12 9 C10.02 9 8.04 9 6 9 C6.99 8.34 7.98 7.68 9 7 C7.84315671 4.9004467 7.84315671 4.9004467 6 3 C3.37374861 2.66574265 3.37374861 2.66574265 1 3 C0.67 2.01 0.34 1.02 0 0 Z " fill="#90B676" transform="translate(177,159)"/>
<path d="M0 0 C0 0.33 0 0.66 0 1 C-1.98 1 -3.96 1 -6 1 C-7.61064629 4.65079826 -8.44894091 8.0507432 -9 12 C-11 10 -11 10 -11.375 6.625 C-11 3 -11 3 -9.4375 0.5 C-6.01717697 -1.60481417 -3.80835623 -0.87885144 0 0 Z " fill="#90B27A" transform="translate(279,164)"/>
<path d="M0 0 C-8.16926356 3.6671644 -15.08791171 4.51007183 -24 4 C-24 3.67 -24 3.34 -24 3 C-23.14277344 2.87882813 -22.28554687 2.75765625 -21.40234375 2.6328125 C-14.08284038 1.62457531 -14.08284038 1.62457531 -6.9375 -0.1875 C-3.9136091 -1.02389536 -2.88740311 -0.87553514 0 0 Z " fill="#A0BB8A" transform="translate(202,197)"/>
<path d="M0 0 C0.99 0 1.98 0 3 0 C1.18235643 4.90763763 -2.85752597 7.61369328 -7.125 10.375 C-9.44321042 11.14773681 -10.72985345 10.81076663 -13 10 C-12.01 9.67 -11.02 9.34 -10 9 C-9.34 8.34 -8.68 7.68 -8 7 C-7.175 6.87625 -6.35 6.7525 -5.5 6.625 C-2.86002318 6.2676954 -2.86002318 6.2676954 -1.75 4.0625 C-1.5025 3.381875 -1.255 2.70125 -1 2 C-0.67 1.34 -0.34 0.68 0 0 Z " fill="#92B46D" transform="translate(297,188)"/>
<path d="M0 0 C5.12980769 6.52884615 5.12980769 6.52884615 4.8125 10.125 C4 12 4 12 1 14 C0.67 13.01 0.34 12.02 0 11 C0.66 11 1.32 11 2 11 C1.67 10.113125 1.34 9.22625 1 8.3125 C0.08777857 5.29076653 -0.18330958 3.11626294 0 0 Z " fill="#95B87C" transform="translate(201,182)"/>
<path d="M0 0 C0.66 0.33 1.32 0.66 2 1 C1.67 1.99 1.34 2.98 1 4 C0.34 4 -0.32 4 -1 4 C-1.33 6.97 -1.66 9.94 -2 13 C-4.23551759 9.64672361 -4.17283528 9.09256343 -3.625 5.3125 C-3.51414063 4.50425781 -3.40328125 3.69601563 -3.2890625 2.86328125 C-3.19367188 2.24839844 -3.09828125 1.63351563 -3 1 C-2.01 0.67 -1.02 0.34 0 0 Z " fill="#83A964" transform="translate(231,163)"/>
<path d="M0 0 C7.12600133 -0.35368021 12.47059106 0.04328652 19 3 C17.3125 4.125 17.3125 4.125 15 5 C12.25 4.125 12.25 4.125 10 3 C10 2.34 10 1.68 10 1 C6.7 1 3.4 1 0 1 C0 0.67 0 0.34 0 0 Z " fill="#BED3A7" transform="translate(229,145)"/>
<path d="M0 0 C0.33 0 0.66 0 1 0 C1.09765625 6.15234375 1.09765625 6.15234375 1 8 C0.67 8.33 0.34 8.66 0 9 C-0.36760731 11.32817964 -0.70241581 13.6618385 -1 16 C-1.33 16 -1.66 16 -2 16 C-2.05402274 13.89611431 -2.09280256 11.79183286 -2.125 9.6875 C-2.14820313 8.51574219 -2.17140625 7.34398437 -2.1953125 6.13671875 C-2 3 -2 3 0 0 Z " fill="#84AC5D" transform="translate(254,158)"/>
<path d="M0 0 C-0.639375 0.12375 -1.27875 0.2475 -1.9375 0.375 C-2.618125 0.58125 -3.29875 0.7875 -4 1 C-4.33 1.66 -4.66 2.32 -5 3 C-7.72265625 3.4140625 -7.72265625 3.4140625 -11.0625 3.625 C-12.16722656 3.69976562 -13.27195312 3.77453125 -14.41015625 3.8515625 C-15.26480469 3.90054688 -16.11945313 3.94953125 -17 4 C-15.37090303 2.06479883 -14.40446131 1.09922178 -11.9140625 0.48828125 C-11.15867187 0.43027344 -10.40328125 0.37226563 -9.625 0.3125 C-8.43970703 0.21582031 -8.43970703 0.21582031 -7.23046875 0.1171875 C-4.81504424 -0.00971747 -2.41808984 -0.0780029 0 0 Z " fill="#7FAA5B" transform="translate(279,147)"/>
<path d="M0 0 C7.57142857 4 7.57142857 4 10 8 C3.51510574 6.53172205 3.51510574 6.53172205 1.0625 4 C0 2 0 2 0 0 Z " fill="#9CB787" transform="translate(289,148)"/>
<path d="M0 0 C-0.33 0.66 -0.66 1.32 -1 2 C-3.72265625 2.4140625 -3.72265625 2.4140625 -7.0625 2.625 C-8.16722656 2.69976562 -9.27195313 2.77453125 -10.41015625 2.8515625 C-11.26480469 2.90054688 -12.11945313 2.94953125 -13 3 C-9.24999673 -0.0726899 -4.72519805 -2.36259903 0 0 Z " fill="#8AB371" transform="translate(193,177)"/>
<path d="M0 0 C1.0725 0.33 2.145 0.66 3.25 1 C6.99731601 2.1717751 6.99731601 2.1717751 11 2 C10.67 2.99 10.34 3.98 10 5 C6.7 4.34 3.4 3.68 0 3 C0 2.01 0 1.02 0 0 Z " fill="#95B479" transform="translate(231,179)"/>
<path d="M0 0 C0.66 0 1.32 0 2 0 C2.33 0.99 2.66 1.98 3 3 C0.03 5.475 0.03 5.475 -3 8 C-2.25 2.25 -2.25 2.25 0 0 Z " fill="#87AD5E" transform="translate(217,151)"/>
<path d="M0 0 C2.1875 -0.375 2.1875 -0.375 5 0 C6.99022836 1.83961648 8.38989899 3.79186148 10 6 C5.56909529 4.79157144 3.01887244 3.48331435 0 0 Z " fill="#93B578" transform="translate(164,193)"/>
<path d="M0 0 C0 0.99 0 1.98 0 3 C-3.3 3.33 -6.6 3.66 -10 4 C-4 -2 -4 -2 0 0 Z " fill="#91B972" transform="translate(229,147)"/>
<path d="M0 0 C0.33 0 0.66 0 1 0 C1.08114106 1.77007714 1.13925505 3.54122098 1.1875 5.3125 C1.22230469 6.29863281 1.25710937 7.28476563 1.29296875 8.30078125 C1 11 1 11 -0.38671875 12.85546875 C-2 14 -2 14 -4 14 C-3.67 13.01 -3.34 12.02 -3 11 C-2.34 11 -1.68 11 -1 11 C-0.67 7.37 -0.34 3.74 0 0 Z " fill="#A3C282" transform="translate(206,164)"/>
<path d="M0 0 C1.98 0.99 1.98 0.99 4 2 C3.34 4.64 2.68 7.28 2 10 C1.34 9.67 0.68 9.34 0 9 C0.185625 8.071875 0.37125 7.14375 0.5625 6.1875 C1.24123881 2.98656229 1.24123881 2.98656229 0 0 Z " fill="#151515" transform="translate(164,218)"/>
<path d="M0 0 C3.875 1.75 3.875 1.75 5 4 C4.67 4.66 4.34 5.32 4 6 C2.68 5.67 1.36 5.34 0 5 C0 3.35 0 1.7 0 0 Z " fill="#88AE60" transform="translate(196,150)"/>
<path d="M0 0 C0 0.66 0 1.32 0 2 C-7.42857143 4.42857143 -7.42857143 4.42857143 -11 3 C-4.5 0 -4.5 0 0 0 Z " fill="#BCDC90" transform="translate(315,128)"/>
<path d="M0 0 C4.76058041 5.52841596 4.76058041 5.52841596 5 9 C4.34 9.66 3.68 10.32 3 11 C2.690625 10.195625 2.38125 9.39125 2.0625 8.5625 C1.23664655 6.10919595 1.23664655 6.10919595 0 5 C-0.04063832 3.33382885 -0.042721 1.66611905 0 0 Z " fill="#8DB06A" transform="translate(201,154)"/>
<path d="M0 0 C0.99 0.33 1.98 0.66 3 1 C2.67 1.99 2.34 2.98 2 4 C4.31 4 6.62 4 9 4 C9 4.33 9 4.66 9 5 C1.25 5.125 1.25 5.125 -1 4 C-0.67 2.68 -0.34 1.36 0 0 Z " fill="#8CB772" transform="translate(173,164)"/>
<path d="M0 0 C2.97 0.33 5.94 0.66 9 1 C9 1.33 9 1.66 9 2 C5.37 2.33 1.74 2.66 -2 3 C-1.34 2.01 -0.68 1.02 0 0 Z " fill="#759E56" transform="translate(234,162)"/>
<path d="M0 0 C1.04449911 3.13349732 0.93423645 3.98968256 0 7 C-0.66 7 -1.32 7 -2 7 C-2.33 7.66 -2.66 8.32 -3 9 C-2.25 2.25 -2.25 2.25 0 0 Z " fill="#97C866" transform="translate(306,141)"/>
<path d="M0 0 C0.53625 0.639375 1.0725 1.27875 1.625 1.9375 C4.44367193 4.38529404 6.33860732 4.66714612 10 5 C10 5.33 10 5.66 10 6 C3.375 6.125 3.375 6.125 0 5 C0 3.35 0 1.7 0 0 Z " fill="#6E6E6E" transform="translate(226,209)"/>
<path d="M0 0 C0 0.99 0 1.98 0 3 C-0.66 3 -1.32 3 -2 3 C-2 3.66 -2 4.32 -2 5 C-3.32 4.67 -4.64 4.34 -6 4 C-2.25 0 -2.25 0 0 0 Z " fill="#8BB070" transform="translate(262,151)"/>
</svg>
